<?xml version="1.0" encoding="iso-8859-1"?>
<!-- Generator: Adobe Illustrator 21.0.0, SVG Export Plug-In . SVG Version: 6.00 Build 0)  -->
<svg version="1.1" id="travel-map-location-pin" xmlns="http://www.w3.org/2000/svg" xmlns:xlink="http://www.w3.org/1999/xlink"
	 x="0px" y="0px" viewBox="0 0 64 64" style="enable-background:new 0 0 64 64;" xml:space="preserve">
<path d="M63.597,6.198c-0.255-0.189-0.584-0.247-0.884-0.156L42.987,11.96l-2.004-0.546C40.987,11.276,41,11.135,41,11
	c0-7.505-2.542-11-8-11c-4.453,0-6.924,2.277-7.714,7.132l-4.024-1.097c-0.016-0.004-0.032,0.002-0.048-0.002
	c-0.075-0.017-0.149-0.009-0.226-0.008c-0.076,0.001-0.148-0.005-0.222,0.013c-0.018,0.004-0.036-0.002-0.054,0.003l-20,6
	C0.29,12.169,0,12.559,0,13v50c0,0.316,0.149,0.614,0.403,0.802C0.578,63.932,0.787,64,1,64c0.097,0,0.193-0.014,0.287-0.042
	l19.726-5.918l21.724,5.925C42.823,63.988,42.912,64,43,64c0.097,0,0.193-0.014,0.287-0.042l20-6C63.71,57.831,64,57.441,64,57V7
	C64,6.684,63.851,6.386,63.597,6.198z M33,2c3.116,0,6,1.09,6,9c0,0.359-0.019,0.726-0.045,1.097v0
	C38.52,18.148,34.732,25.755,33,28.957C31.158,25.559,27,17.195,27,11c0-0.882,0.039-1.701,0.121-2.501c0,0,0,0,0,0s0,0,0,0
	C27.698,2.787,30.288,2,33,2z M2,13.744l18-5.4v47.912l-18,5.4V13.744z M22,8.309l3.06,0.834c-0.004,0.062-0.003,0.131-0.006,0.194
	C25.021,9.876,25,10.424,25,11c0,8.463,6.85,20.025,7.142,20.513C32.322,31.815,32.648,32,33,32c0.353,0,0.678-0.185,0.858-0.487
	c0.015-0.025,0.051-0.086,0.101-0.171c0.004-0.007,0.005-0.008,0.009-0.016c0.051-0.087,0.118-0.204,0.198-0.344
	c0.01-0.018,0.018-0.031,0.029-0.05c0.081-0.143,0.176-0.312,0.281-0.5c0.015-0.027,0.028-0.05,0.043-0.078
	c0.106-0.192,0.224-0.406,0.349-0.639c0.021-0.038,0.04-0.074,0.061-0.113c0.126-0.234,0.259-0.486,0.4-0.755
	c0.027-0.052,0.054-0.104,0.082-0.158c0.14-0.27,0.286-0.556,0.438-0.856c0.031-0.062,0.062-0.124,0.094-0.188
	c0.155-0.309,0.313-0.631,0.475-0.967c0.029-0.06,0.057-0.12,0.086-0.18c0.166-0.346,0.334-0.703,0.504-1.074
	c0.028-0.061,0.056-0.124,0.084-0.186c0.173-0.38,0.346-0.768,0.519-1.169c0.023-0.053,0.046-0.107,0.069-0.161
	c0.178-0.415,0.356-0.839,0.531-1.272c0.015-0.037,0.03-0.075,0.045-0.113c0.171-0.426,0.339-0.859,0.503-1.299
	c0.015-0.04,0.031-0.08,0.046-0.12c0.165-0.445,0.323-0.896,0.477-1.351c0.021-0.063,0.043-0.125,0.065-0.189
	c0.148-0.444,0.288-0.891,0.422-1.34c0.022-0.074,0.045-0.147,0.066-0.221c0.129-0.443,0.249-0.888,0.361-1.332
	c0.02-0.08,0.041-0.16,0.06-0.24c0.108-0.44,0.204-0.88,0.291-1.318c0.016-0.083,0.033-0.166,0.049-0.249
	c0.082-0.436,0.153-0.868,0.211-1.298c0.006-0.041,0.015-0.083,0.02-0.124L42,13.764v47.927l-20-5.455V8.309z M62,56.256l-18,5.4
	V13.744l18-5.4V56.256z"/>
<path d="M53,50c0.341,0,0.658-0.174,0.842-0.461C54.053,49.21,59,41.416,59,35.667C59,30.436,57.094,28,53,28s-6,2.436-6,7.667
	c0,5.75,4.947,13.543,5.158,13.873C52.342,49.826,52.659,50,53,50z M53,30c1.936,0,4,0.438,4,5.667c0,3.811-2.612,8.927-4,11.375
	c-1.388-2.447-4-7.563-4-11.375C49,30.438,51.064,30,53,30z"/>
<path d="M33,12c2.206,0,4-1.794,4-4s-1.794-4-4-4s-4,1.794-4,4S30.794,12,33,12z M33,6c1.103,0,2,0.897,2,2s-0.897,2-2,2
	s-2-0.897-2-2S31.897,6,33,6z"/>
<path d="M56,34c0-1.654-1.346-3-3-3s-3,1.346-3,3s1.346,3,3,3S56,35.654,56,34z M52,34c0-0.551,0.448-1,1-1s1,0.449,1,1
	s-0.448,1-1,1S52,34.551,52,34z"/>
<path d="M10,17c-4.094,0-6,2.436-6,7.667c0,5.75,4.947,13.543,5.158,13.873C9.342,38.826,9.659,39,10,39s0.658-0.174,0.842-0.461
	C11.053,38.21,16,30.416,16,24.667C16,19.436,14.094,17,10,17z M10,36.041c-1.388-2.447-4-7.563-4-11.375C6,19.438,8.064,19,10,19
	s4,0.438,4,5.667C14,28.478,11.388,33.594,10,36.041z"/>
<path d="M10,20c-1.654,0-3,1.346-3,3s1.346,3,3,3s3-1.346,3-3S11.654,20,10,20z M10,24c-0.552,0-1-0.449-1-1s0.448-1,1-1
	s1,0.449,1,1S10.552,24,10,24z"/>
<rect x="37" y="42" width="2" height="2"/>
<rect x="33" y="42" width="2" height="2"/>
<rect x="29" y="42" width="2" height="2"/>
<rect x="37" y="38" width="2" height="2"/>
<rect x="33" y="38" width="2" height="2"/>
<rect x="29" y="38" width="2" height="2"/>
<rect x="25" y="42" width="2" height="2"/>
<rect x="25" y="38" width="2" height="2"/>
<rect x="9" y="50" width="2" height="2"/>
<rect x="13" y="46" width="2" height="2"/>
<rect x="9" y="46" width="2" height="2"/>
<rect x="5" y="50" width="2" height="2"/>
<rect x="5" y="46" width="2" height="2"/>
<rect x="37" y="50" width="2" height="2"/>
<rect x="33" y="50" width="2" height="2"/>
<rect x="29" y="50" width="2" height="2"/>
<rect x="37" y="46" width="2" height="2"/>
<rect x="33" y="46" width="2" height="2"/>
<rect x="29" y="46" width="2" height="2"/>
<rect x="25" y="50" width="2" height="2"/>
<rect x="25" y="46" width="2" height="2"/>
<rect x="37" y="54" width="2" height="2"/>
<rect x="33" y="54" width="2" height="2"/>
<rect x="56" y="16" width="2" height="2"/>
<rect x="52" y="16" width="2" height="2"/>
<rect x="48" y="16" width="2" height="2"/>
<rect x="56" y="20" width="2" height="2"/>
<rect x="52" y="20" width="2" height="2"/>
</svg>
