<?xml version="1.0" encoding="iso-8859-1"?>
<!-- Generator: Adobe Illustrator 20.0.0, SVG Export Plug-In . SVG Version: 6.00 Build 0)  -->
<svg version="1.1" id="Layer_1_1_"  class="about-card__img" xmlns="http://www.w3.org/2000/svg" xmlns:xlink="http://www.w3.org/1999/xlink" x="0px" y="0px"
	 viewBox="0 0 64 64" style="enable-background:new 0 0 64 64;" xml:space="preserve">
<path d="M46,43V17v-1h-0.051C45.431,8.195,38.933,2,31,2H5C4.448,2,4,2.448,4,3c0,4.535,2.031,8.598,5.222,11.351
	C8.425,16.477,8,18.707,8,21v18c0,0.552,0.448,1,1,1h4v10c0,0.552,0.448,1,1,1h14v4.25l-16.427,4.79l0.56,1.92l16.771-4.89
	l7.65,3.825C36.693,60.965,36.847,61,37,61s0.307-0.035,0.447-0.105l7.65-3.825l16.771,4.89l0.56-1.92L46,55.25V43z M44,17v24.951
	c-3.34-0.328-6.252-2.289-7.819-5.252c0.046-0.013,0.089-0.03,0.134-0.044c0.054-0.016,0.107-0.035,0.161-0.052
	c0.201-0.065,0.397-0.137,0.59-0.216c0.027-0.011,0.054-0.022,0.081-0.034c2.14-0.911,3.776-2.715,4.476-4.932
	c0.013-0.04,0.024-0.081,0.036-0.122c0.057-0.191,0.107-0.384,0.15-0.581c0.014-0.066,0.029-0.131,0.042-0.198
	c0.035-0.182,0.062-0.367,0.085-0.553c0.008-0.069,0.019-0.137,0.026-0.207C41.985,29.51,42,29.257,42,29
	c0-0.266-0.014-0.528-0.04-0.787c-0.009-0.087-0.025-0.172-0.036-0.258c-0.022-0.17-0.045-0.341-0.078-0.508
	c-0.02-0.1-0.047-0.198-0.07-0.297c-0.035-0.149-0.071-0.298-0.114-0.444c-0.031-0.103-0.068-0.203-0.102-0.304
	c-0.047-0.137-0.095-0.274-0.149-0.407c-0.042-0.102-0.087-0.201-0.133-0.301c-0.058-0.128-0.118-0.254-0.182-0.378
	c-0.051-0.099-0.106-0.195-0.161-0.291c-0.069-0.12-0.14-0.237-0.215-0.353c-0.06-0.094-0.123-0.185-0.187-0.276
	c-0.079-0.112-0.161-0.221-0.246-0.328c-0.069-0.087-0.138-0.174-0.21-0.258c-0.09-0.105-0.183-0.205-0.278-0.305
	c-0.075-0.079-0.15-0.159-0.228-0.235c-0.101-0.098-0.206-0.191-0.312-0.283c-0.08-0.07-0.159-0.142-0.242-0.209
	c-0.114-0.092-0.233-0.177-0.352-0.263c-0.082-0.059-0.161-0.121-0.245-0.177c-0.134-0.089-0.274-0.17-0.413-0.251
	c-0.075-0.044-0.147-0.091-0.224-0.133c-0.21-0.113-0.426-0.218-0.647-0.312c-0.009-0.004-0.017-0.009-0.026-0.012
	c-0.23-0.098-0.467-0.183-0.707-0.259c-0.077-0.024-0.157-0.041-0.235-0.063c-0.166-0.047-0.332-0.093-0.502-0.13
	c-0.096-0.02-0.194-0.033-0.29-0.05c-0.125-0.022-0.248-0.049-0.375-0.065V17V4.636C40.216,6.328,44,11.228,44,17z M34,23
	c3.309,0,6,2.691,6,6c0,0.358-0.038,0.707-0.098,1.048c-0.007,0.038-0.01,0.076-0.017,0.113c-0.061,0.31-0.151,0.609-0.257,0.9
	c-0.024,0.066-0.046,0.134-0.073,0.199c-0.106,0.262-0.235,0.513-0.376,0.755c-0.049,0.084-0.098,0.167-0.151,0.248
	c-0.143,0.22-0.3,0.429-0.469,0.628c-0.071,0.083-0.145,0.164-0.221,0.243c-0.178,0.187-0.365,0.364-0.566,0.526
	c-0.079,0.064-0.163,0.124-0.246,0.184c-0.221,0.161-0.45,0.313-0.694,0.443c-0.064,0.034-0.131,0.062-0.196,0.095
	c-0.279,0.136-0.566,0.26-0.868,0.352c-0.023,0.007-0.047,0.011-0.07,0.018c-0.341,0.099-0.693,0.174-1.057,0.213
	c0,0-0.001,0-0.001,0C34.429,34.987,34.216,35,34,35c-3.309,0-6-2.691-6-6S30.691,23,34,23z M6.038,4H31c0.682,0,1.346,0.069,2,0.17
	V16H19C12.168,16,6.55,10.703,6.038,4z M37,58.882l-7-3.5V50c0-0.552-0.448-1-1-1H15V39c0-0.552-0.448-1-1-1h-4V21
	c0-1.855,0.31-3.663,0.893-5.399C13.234,17.112,16.013,18,19,18h14v3.069c-3.94,0.495-7,3.859-7,7.931s3.06,7.436,7,7.931V42h-9.184
	c-0.414-1.161-1.514-2-2.816-2h-1c-1.654,0-3,1.346-3,3s1.346,3,3,3h1c1.302,0,2.402-0.839,2.816-2H34c0.552,0,1-0.448,1-1v-4.381
	c2.007,3.058,5.291,5.035,9,5.338v11.425L37,58.882z M22,43c0,0.551-0.449,1-1,1h-1c-0.551,0-1-0.449-1-1s0.449-1,1-1h1
	C21.551,42,22,42.449,22,43z"/>
<path d="M34,33c2.206,0,4-1.794,4-4s-1.794-4-4-4s-4,1.794-4,4S31.794,33,34,33z M34,27c1.103,0,2,0.897,2,2s-0.897,2-2,2
	s-2-0.897-2-2S32.897,27,34,27z"/>
</svg>
