<svg xmlns="http://www.w3.org/2000/svg" viewBox="0 0 83.55 83.55"><defs><style>.cls-1{fill:#3b589d;}</style></defs><g id="Layer_2" data-name="Layer 2"><g id="Layer_1-2" data-name="Layer 1"><path class="cls-1" d="M50,35.42l-.43,5.74h-5.6V60.42H36.55V41.16H32.82V35.42h3.73V29.86s-.26-6.36,7.38-6.71a25,25,0,0,1,6.8.67L50,29.48s-6-1.87-6,1.77v4.16h6Z"/><path class="cls-1" d="M41.77,83.55A41.78,41.78,0,1,1,83.55,41.77,41.82,41.82,0,0,1,41.77,83.55Zm0-77.81a36,36,0,1,0,36,36A36.07,36.07,0,0,0,41.77,5.74Z"/></g></g></svg>