<?xml version="1.0" encoding="iso-8859-1"?>
<!-- Generator: Adobe Illustrator 20.0.0, SVG Export Plug-In . SVG Version: 6.00 Build 0)  -->
<svg version="1.1" id="Layer_1_1_" xmlns="http://www.w3.org/2000/svg" xmlns:xlink="http://www.w3.org/1999/xlink" x="0px" y="0px"
	 viewBox="0 0 64 64" style="enable-background:new 0 0 64 64;" xml:space="preserve">
<path d="M61.204,26.021L38,21.187V8c0-3.309-2.691-6-6-6s-6,2.691-6,6v13.187L2.796,26.021C2.333,26.117,2,26.526,2,27v7
	c0,0.553,0.448,1,1,1h3.184C6.072,35.314,6,35.648,6,36c0,1.654,1.346,3,3,3s3-1.346,3-3c0-0.352-0.072-0.686-0.184-1h3.369
	C15.072,35.314,15,35.648,15,36c0,1.654,1.346,3,3,3s3-1.346,3-3c0-0.352-0.072-0.686-0.184-1H26v17.434l-4.515,2.709
	C21.184,55.323,21,55.648,21,56v5c0,0.316,0.149,0.613,0.403,0.803c0.254,0.188,0.581,0.245,0.884,0.155L32,59.044l9.713,2.914
	C41.807,61.986,41.904,62,42,62c0.212,0,0.422-0.067,0.597-0.197C42.851,61.613,43,61.316,43,61v-5c0-0.352-0.184-0.677-0.485-0.857
	L38,52.434V35h5.184C43.072,35.314,43,35.648,43,36c0,1.654,1.346,3,3,3s3-1.346,3-3c0-0.352-0.072-0.686-0.184-1h3.369
	C52.072,35.314,52,35.648,52,36c0,1.654,1.346,3,3,3s3-1.346,3-3c0-0.352-0.072-0.686-0.184-1H61c0.552,0,1-0.447,1-1v-7
	C62,26.526,61.667,26.117,61.204,26.021z M22,33h-6v-2h6V33z M14,33H9v-2h5V33z M10,36c0,0.552-0.449,1-1,1s-1-0.448-1-1
	s0.449-1,1-1S10,35.448,10,36z M19,36c0,0.552-0.449,1-1,1s-1-0.448-1-1s0.449-1,1-1S19,35.448,19,36z M55,33h-5v-2h5V33z M48,33h-6
	v-2h6V33z M47,36c0,0.552-0.449,1-1,1s-1-0.448-1-1s0.449-1,1-1S47,35.448,47,36z M56,36c0,0.552-0.449,1-1,1s-1-0.448-1-1
	s0.449-1,1-1S56,35.448,56,36z M60,33h-3v-3c0-0.553-0.448-1-1-1H41c-0.552,0-1,0.447-1,1v3h-3c-0.552,0-1,0.447-1,1v19
	c0,0.352,0.184,0.677,0.485,0.857L41,56.566v3.09l-8.713-2.614C32.194,57.014,32.097,57,32,57s-0.194,0.014-0.287,0.042L23,59.656
	v-3.09l4.515-2.709C27.816,53.677,28,53.352,28,53V34c0-0.553-0.448-1-1-1h-3v-3c0-0.553-0.448-1-1-1H8c-0.552,0-1,0.447-1,1v3H4
	v-5.187l23.204-4.835C27.667,22.883,28,22.474,28,22V8c0-2.206,1.794-4,4-4s4,1.794,4,4v14c0,0.474,0.333,0.883,0.796,0.979
	L60,27.813V33z"/>
<path d="M32,6c-1.654,0-3,1.346-3,3h2c0-0.552,0.449-1,1-1s1,0.448,1,1h2C35,7.346,33.654,6,32,6z"/>
<rect x="31" y="47" width="2" height="8"/>
</svg>
