<svg xmlns="http://www.w3.org/2000/svg" viewBox="0 0 44.77 57.76"><defs><style>.cls-1,.cls-2,.cls-3{fill:none;stroke-linecap:round;stroke-miterlimit:10;stroke-width:3px;}.cls-1{stroke:#262626;}.cls-2,.cls-3{stroke:#97cd00;}.cls-3{stroke-dasharray:8.79 8.79;}</style></defs><g id="Layer_2" data-name="Layer 2"><g id="Layer_1-2" data-name="Layer 1"><path class="cls-1" d="M22.45,56.26c-4.58-6-9-11.71-13.35-17.46-1.47-1.93-3-3.84-4.25-5.9C.43,25.74.37,18.38,4.75,11.27S16,.83,24.48,1.62A20.22,20.22,0,0,1,39.66,33.27M22.8,37.92l-6.08-8a31.46,31.46,0,0,1-1.93-2.69,8.84,8.84,0,0,1,0-9.85,8.94,8.94,0,0,1,9-4.4,9.22,9.22,0,0,1,6.91,14.42Z"/><path class="cls-2" d="M22.43,47.37q-1.21-1.6-2.43-3.18"/><path class="cls-3" d="M14.66,37.22l-2.09-2.74c-1.08-1.43-2.2-2.84-3.14-4.36-3.26-5.3-3.31-10.73-.08-16S17.69,6.42,23.94,7A15,15,0,0,1,37.8,22.53"/><path class="cls-2" d="M37,26.83a15.53,15.53,0,0,1-1.81,3.56"/></g></g></svg>