<svg xmlns="http://www.w3.org/2000/svg" xmlns:xlink="http://www.w3.org/1999/xlink" viewBox="0 0 83.55 83.55"><defs><style>.cls-1{fill:url(#linear-gradient);}</style><linearGradient id="linear-gradient" x1="12.25" y1="14.25" x2="71.3" y2="73.3" gradientTransform="matrix(1, 0, 0, -1, 0, 85.55)" gradientUnits="userSpaceOnUse"><stop offset="0" stop-color="#ffbd00"/><stop offset="0.4" stop-color="#ca3744"/><stop offset="1" stop-color="#803ddf"/></linearGradient></defs><g id="Layer_2" data-name="Layer 2"><g id="Layer_1-2" data-name="Layer 1"><path class="cls-1" d="M59.92,29.23a9.81,9.81,0,0,0-5.6-5.6,14.08,14.08,0,0,0-4.65-.89c-2-.09-2.69-.11-7.89-.11s-5.86,0-7.9.11a14.08,14.08,0,0,0-4.65.89,9.81,9.81,0,0,0-5.6,5.6,14.08,14.08,0,0,0-.89,4.65c-.09,2-.11,2.69-.11,7.89s0,5.86.11,7.9a14.08,14.08,0,0,0,.89,4.65,9.81,9.81,0,0,0,5.6,5.6,14.08,14.08,0,0,0,4.65.89c2,.09,2.7.12,7.9.12s5.85,0,7.89-.12a14.08,14.08,0,0,0,4.65-.89,9.81,9.81,0,0,0,5.6-5.6,14.08,14.08,0,0,0,.89-4.65c.09-2,.11-2.69.11-7.9s0-5.85-.11-7.89A14.34,14.34,0,0,0,59.92,29.23ZM57.36,49.51a10.31,10.31,0,0,1-.66,3.56,5.86,5.86,0,0,1-1.43,2.2,6,6,0,0,1-2.2,1.43,10.56,10.56,0,0,1-3.56.66c-2,.09-2.62.11-7.73.11s-5.73,0-7.74-.11a10.82,10.82,0,0,1-3.56-.66,6.32,6.32,0,0,1-3.63-3.63,10.82,10.82,0,0,1-.66-3.56c-.09-2-.11-2.62-.11-7.74s0-5.71.11-7.73a10.82,10.82,0,0,1,.66-3.56,6,6,0,0,1,1.43-2.2,5.86,5.86,0,0,1,2.2-1.43A10.31,10.31,0,0,1,34,26.19c2-.09,2.62-.11,7.74-.11s5.71,0,7.73.11a10.31,10.31,0,0,1,3.56.66,6.32,6.32,0,0,1,3.63,3.63A10.31,10.31,0,0,1,57.36,34c.09,2,.11,2.62.11,7.73S57.45,47.49,57.36,49.51ZM41.78,31.94a9.84,9.84,0,1,0,9.83,9.83A9.83,9.83,0,0,0,41.78,31.94Zm0,16.22a6.39,6.39,0,1,1,6.38-6.39A6.39,6.39,0,0,1,41.78,48.16ZM54.3,31.55a2.3,2.3,0,1,1-2.3-2.3A2.3,2.3,0,0,1,54.3,31.55ZM41.77,0A41.78,41.78,0,1,0,83.55,41.77,41.82,41.82,0,0,0,41.77,0Zm0,77.81a36,36,0,1,1,36-36A36.08,36.08,0,0,1,41.77,77.81Z"/></g></g></svg>