<svg xmlns="http://www.w3.org/2000/svg" viewBox="0 0 254.65 201.83"><defs><style>.cls-1,.cls-2,.cls-3{fill:none;stroke-linecap:round;stroke-miterlimit:10;stroke-width:7px;}.cls-1{stroke:#262626;}.cls-2,.cls-3{stroke:#97cd00;}.cls-3{stroke-dasharray:15.3 15.3;}.cls-4{fill:#262626;}.cls-5{fill:#97cd00;}</style></defs><g id="Layer_2" data-name="Layer 2"><g id="Layer_1-2" data-name="Layer 1"><path class="cls-1" d="M47.59,118.74C37.94,106.13,28.69,94.09,19.5,82c-3.09-4.06-6.28-8.08-8.95-12.42C1.26,54.51,1.12,39,10.33,24.07,19.74,8.8,34.08,2.08,51.87,3.75c33,3.1,50.57,39.23,31.94,66.61M48.33,80.14c-4.4-5.74-8.61-11.22-12.8-16.73-1.4-1.85-2.85-3.68-4.07-5.66-4.23-6.86-4.3-13.91-.1-20.72s10.82-10,18.92-9.26A19.39,19.39,0,0,1,64.82,58.11Z"/><path class="cls-2" d="M47.56,100l-4.57-6"/><path class="cls-3" d="M33.69,81.93l-6.89-9c-2.28-3-4.64-6-6.61-9.18-6.87-11.13-7-22.57-.16-33.63,7-11.28,17.55-16.24,30.68-15a31.63,31.63,0,0,1,29,35.19"/><path class="cls-2" d="M77.81,57.67a32.74,32.74,0,0,1-3.49,6.63"/><path class="cls-4" d="M82.3,158.08l.62-10.77a1.58,1.58,0,0,1,1.57-1.48h19.74a1.57,1.57,0,0,1,1.57,1.65l-2.71,52.85a1.59,1.59,0,0,1-1.57,1.5H73.57q-17.44,0-16.48-19.36l4-75.84Q62.05,87,79.49,87H89.73q19.2,0,18.24,20l-.56,11a1.59,1.59,0,0,1-1.57,1.5H93.94a1.57,1.57,0,0,1-1.57-1.65l.4-8.59q.48-8.32-5.92-8.32H83q-6.57,0-7,8.32l-3.68,70.4q-.48,8.31,6.08,8.32h8.75a1.59,1.59,0,0,0,1.57-1.5l1.28-25a1.58,1.58,0,0,0-1.58-1.65H83.88A1.58,1.58,0,0,1,82.3,158.08Z"/><path class="cls-4" d="M127.91,201.83H116a1.58,1.58,0,0,1-1.57-1.66l4.87-93.54q1-19.68,19-19.68h11.2q18.08,0,17.12,19.68l-4.88,93.71a1.58,1.58,0,0,1-1.57,1.49h-11.9a1.58,1.58,0,0,1-1.57-1.65l1.92-38.78a1.57,1.57,0,0,0-1.57-1.65H133a1.56,1.56,0,0,0-1.57,1.49l-1.94,39.09A1.57,1.57,0,0,1,127.91,201.83Zm20.17-56a1.57,1.57,0,0,0,1.57-1.49l2-36.75q.32-6.72-6.24-6.72h-4.16q-6.57,0-6.88,6.72l-2,36.58a1.58,1.58,0,0,0,1.57,1.66Z"/><path class="cls-4" d="M180.85,88.44A1.56,1.56,0,0,1,182.42,87h25.87q18.24,0,17.28,19.68l-1.76,34.08q-1.12,19.51-19.2,19.52h-11a1.58,1.58,0,0,0-1.57,1.49l-1.93,38.61a1.57,1.57,0,0,1-1.57,1.5H176.66a1.58,1.58,0,0,1-1.57-1.66ZM193,144.65a1.58,1.58,0,0,0,1.57,1.66h7.94q5.91,0,6.24-6.72l1.76-32q.32-6.72-6.4-6.72h-7.31a1.56,1.56,0,0,0-1.57,1.49Z"/><path class="cls-5" d="M215.62,180.36a1.55,1.55,0,0,0,.11,2.22,4,4,0,0,1,1.17,3.34l-.39,7.66q-.3,6-5.85,6h-3.09q-5.55,0-5.26-6l.05-.79a1.58,1.58,0,0,1,1.57-1.47h1.45A1.57,1.57,0,0,1,207,193l0,.22c-.07,1.37.51,2.06,1.72,2.06h1.08a1.92,1.92,0,0,0,2.16-2.06l.39-7.27q.15-2.31-2.55-2.31H208.5l.2-4h.64c1.8,0,2.73-.77,2.8-2.31l.34-6.68a1.69,1.69,0,0,0-1.92-2.06h-.63c-1.22,0-1.87.68-2,2.06l-.08,2.08a1.58,1.58,0,0,1-1.58,1.51h-1.45a1.58,1.58,0,0,1-1.57-1.66l.11-2.27q.3-6,5.85-6h2.7c3.67,0,5.4,2,5.21,6l-.39,7A4.39,4.39,0,0,1,215.62,180.36Z"/><path class="cls-5" d="M232.55,174.28a1.57,1.57,0,0,1-1.57-1.65l.07-1.5q.15-2.55-1.92-2.55h-.78c-1.21,0-1.85.68-1.92,2.06l-.42,7.6a1.58,1.58,0,0,0,2.44,1.4h0a1.53,1.53,0,0,1,.86-.26h.91q5.29,0,5,6.05l-.45,8.2c-.19,4-2.06,6-5.6,6H225.6c-3.54,0-5.21-2-5-6l1.22-23.28q.3-6,5.61-6h3.29q5.29,0,5,6l-.12,2.43a1.59,1.59,0,0,1-1.58,1.5Zm-5.31,9.38a1.56,1.56,0,0,0-1.57,1.49l-.42,8c-.09,1.41.53,2.11,1.87,2.11H228a2,2,0,0,0,2.22-2.11l.34-7q.15-2.55-1.92-2.55Z"/><path class="cls-5" d="M244.36,199.58q-5.55,0-5.25-6.05l1.22-23.18q.3-6,5.85-6h3.19c3.7,0,5.46,2,5.26,6l-1.23,23.18q-.28,6-5.84,6.05Zm2.51-31c-1.21,0-1.85.68-1.92,2.06l-1.23,22.6a1.74,1.74,0,0,0,2,2.06h1.18c1.21,0,1.85-.69,1.91-2.06l1.23-22.6a1.73,1.73,0,0,0-2-2.06Z"/></g></g></svg>