<svg xmlns="http://www.w3.org/2000/svg" viewBox="0 0 83.55 83.55"><defs><style>.cls-1{fill:#299df4;}</style></defs><g id="Layer_2" data-name="Layer 2"><g id="Layer_1-2" data-name="Layer 1"><path class="cls-1" d="M59.33,28.4a14.83,14.83,0,0,1-4.63,1.77,7.28,7.28,0,0,0-12.59,5,7.61,7.61,0,0,0,.18,1.66,20.66,20.66,0,0,1-15-7.61,7.28,7.28,0,0,0,2.25,9.72,7.24,7.24,0,0,1-3.3-.91v.09a7.29,7.29,0,0,0,5.84,7.14,7.12,7.12,0,0,1-1.92.26,7.65,7.65,0,0,1-1.36-.13,7.26,7.26,0,0,0,6.8,5.05,14.59,14.59,0,0,1-9,3.12,14.1,14.1,0,0,1-1.73-.1A20.65,20.65,0,0,0,36,56.71C49.37,56.71,56.7,45.61,56.7,36c0-.31,0-.63,0-.94a14.82,14.82,0,0,0,3.64-3.77,14.69,14.69,0,0,1-4.19,1.15A7.32,7.32,0,0,0,59.33,28.4Z"/><path class="cls-1" d="M41.78,0A41.78,41.78,0,1,0,83.55,41.77,41.82,41.82,0,0,0,41.78,0Zm0,77.81a36,36,0,1,1,36-36A36.08,36.08,0,0,1,41.78,77.81Z"/></g></g></svg>