<svg xmlns="http://www.w3.org/2000/svg" viewBox="0 0 83.55 83.55"><defs><style>.cls-1{fill:#e12603;}</style></defs><g id="Layer_2" data-name="Layer 2"><g id="Layer_1-2" data-name="Layer 1"><path class="cls-1" d="M55.15,29.62a175.64,175.64,0,0,0-26.75,0,5.9,5.9,0,0,0-5.26,4.83,58.39,58.39,0,0,0,0,14.65,5.93,5.93,0,0,0,5.27,4.83,175.64,175.64,0,0,0,26.75,0,5.93,5.93,0,0,0,5.27-4.83,59.84,59.84,0,0,0,0-14.65A5.93,5.93,0,0,0,55.15,29.62Zm-18,17.31V36.62l9.17,5.15Z"/><path class="cls-1" d="M41.77,0A41.78,41.78,0,1,0,83.55,41.77,41.82,41.82,0,0,0,41.77,0Zm0,77.81a36,36,0,1,1,36-36A36.08,36.08,0,0,1,41.77,77.81Z"/></g></g></svg>